<svg width="717" height="774" viewBox="0 0 717 774" fill="none" xmlns="http://www.w3.org/2000/svg">
<path d="M476.576 50.4481H111.766C103.213 50.4481 96.2788 57.382 96.2788 65.9353V270.452C96.2788 279.006 103.213 285.94 111.766 285.94H476.576C485.129 285.94 492.063 279.006 492.063 270.452V65.9353C492.063 57.382 485.129 50.4481 476.576 50.4481Z" fill="white"/>
<path d="M492.063 65.964V72.0872H96.2788V65.964C96.2825 61.8498 97.9127 57.9038 100.814 54.9865C103.715 52.0693 107.652 50.4173 111.766 50.3908H476.647C478.683 50.3983 480.697 50.8074 482.574 51.5946C484.451 52.3818 486.155 53.5317 487.587 54.9784C489.019 56.4251 490.151 58.1401 490.919 60.0252C491.687 61.9103 492.076 63.9285 492.063 65.964Z" fill="#00CD7E"/>
<path d="M476.576 50.4481H111.766C103.213 50.4481 96.2788 57.382 96.2788 65.9353V270.452C96.2788 279.006 103.213 285.94 111.766 285.94H476.576C485.129 285.94 492.063 279.006 492.063 270.452V65.9353C492.063 57.382 485.129 50.4481 476.576 50.4481Z" stroke="#263238" stroke-width="1.21" stroke-linecap="round" stroke-linejoin="round"/>
<path d="M492.063 65.964V72.0872H96.2788V65.964C96.2825 61.8498 97.9127 57.9038 100.814 54.9865C103.715 52.0693 107.652 50.4173 111.766 50.3908H476.647C478.683 50.3983 480.697 50.8074 482.574 51.5946C484.451 52.3818 486.155 53.5317 487.587 54.9784C489.019 56.4251 490.151 58.1401 490.919 60.0252C491.687 61.9103 492.076 63.9285 492.063 65.964V65.964Z" stroke="#263238" stroke-width="1.21" stroke-linecap="round" stroke-linejoin="round"/>
<path d="M140.733 61.2462C140.747 62.0312 140.528 62.8028 140.102 63.4627C139.676 64.1226 139.064 64.641 138.343 64.952C137.622 65.263 136.825 65.3525 136.053 65.2091C135.281 65.0658 134.569 64.696 134.008 64.1469C133.447 63.5978 133.061 62.8942 132.901 62.1255C132.741 61.3568 132.813 60.5578 133.108 59.8302C133.403 59.1026 133.908 58.4792 134.559 58.0393C135.209 57.5994 135.976 57.363 136.761 57.36C137.801 57.3561 138.8 57.7615 139.544 58.4887C140.287 59.2159 140.714 60.2065 140.733 61.2462Z" fill="#263238"/>
<path d="M161.411 61.2462C161.425 62.0312 161.206 62.8028 160.78 63.4627C160.355 64.1226 159.742 64.641 159.021 64.952C158.301 65.263 157.503 65.3525 156.731 65.2091C155.959 65.0658 155.247 64.696 154.686 64.1469C154.125 63.5978 153.74 62.8942 153.579 62.1255C153.419 61.3568 153.491 60.5578 153.786 59.8302C154.081 59.1026 154.586 58.4792 155.237 58.0393C155.887 57.5994 156.654 57.363 157.439 57.36C158.479 57.3561 159.478 57.7615 160.222 58.4887C160.965 59.2159 161.392 60.2065 161.411 61.2462Z" fill="#263238"/>
<path d="M178.131 65.204C180.317 65.204 182.089 63.432 182.089 61.2461C182.089 59.0603 180.317 57.2883 178.131 57.2883C175.946 57.2883 174.174 59.0603 174.174 61.2461C174.174 63.432 175.946 65.204 178.131 65.204Z" fill="#263238"/>
<path d="M238.044 89.2091H126.135C122.61 89.2091 119.753 92.0661 119.753 95.5904V149.423C119.753 152.947 122.61 155.804 126.135 155.804H238.044C241.568 155.804 244.425 152.947 244.425 149.423V95.5904C244.425 92.0661 241.568 89.2091 238.044 89.2091Z" stroke="#263238" stroke-width="1.21" stroke-linecap="round" stroke-linejoin="round"/>
<path d="M127.081 147.444H235.176" stroke="#263238" stroke-width="1.21" stroke-linecap="round" stroke-linejoin="round"/>
<path d="M147.659 134.724H135.112V147.272H147.659V134.724Z" fill="#00CD7E" stroke="#263238" stroke-width="1.21" stroke-miterlimit="10"/>
<path d="M166.014 118.233H153.467V147.444H166.014V118.233Z" fill="#00CD7E" stroke="#263238" stroke-width="1.21" stroke-miterlimit="10"/>
<path d="M186.693 123.252H174.145V147.731H186.693V123.252Z" fill="#00CD7E" stroke="#263238" stroke-width="1.21" stroke-miterlimit="10"/>
<path d="M208.432 98.8743H195.884V146.885H208.432V98.8743Z" fill="#00CD7E" stroke="#263238" stroke-width="1.21" stroke-miterlimit="10"/>
<path d="M230.143 99.2471H217.595V147.257H230.143V99.2471Z" fill="#00CD7E" stroke="#263238" stroke-width="1.21" stroke-miterlimit="10"/>
<path d="M116.842 189.833H127.081" stroke="#263238" stroke-width="1.21" stroke-linecap="round" stroke-linejoin="round"/>
<path d="M116.842 209.622H127.081" stroke="#263238" stroke-width="1.21" stroke-linecap="round" stroke-linejoin="round"/>
<path d="M116.842 229.44H127.081" stroke="#263238" stroke-width="1.21" stroke-linecap="round" stroke-linejoin="round"/>
<path d="M116.842 249.244H127.081" stroke="#263238" stroke-width="1.21" stroke-linecap="round" stroke-linejoin="round"/>
<path d="M149.667 264.186V256.227" stroke="#263238" stroke-width="1.21" stroke-linecap="round" stroke-linejoin="round"/>
<path d="M165.9 264.186V256.227" stroke="#263238" stroke-width="1.21" stroke-linecap="round" stroke-linejoin="round"/>
<path d="M182.132 264.186V256.227" stroke="#263238" stroke-width="1.21" stroke-linecap="round" stroke-linejoin="round"/>
<path d="M198.38 264.186V256.227" stroke="#263238" stroke-width="1.21" stroke-linecap="round" stroke-linejoin="round"/>
<path d="M214.598 264.186V256.227" stroke="#263238" stroke-width="1.21" stroke-linecap="round" stroke-linejoin="round"/>
<path d="M230.831 264.186V256.227" stroke="#263238" stroke-width="1.21" stroke-linecap="round" stroke-linejoin="round"/>
<path d="M247.064 264.186V256.227" stroke="#263238" stroke-width="1.21" stroke-linecap="round" stroke-linejoin="round"/>
<path d="M263.311 264.186V256.227" stroke="#263238" stroke-width="1.21" stroke-linecap="round" stroke-linejoin="round"/>
<path d="M279.544 264.186V256.227" stroke="#263238" stroke-width="1.21" stroke-linecap="round" stroke-linejoin="round"/>
<path d="M295.777 264.186V256.227" stroke="#263238" stroke-width="1.21" stroke-linecap="round" stroke-linejoin="round"/>
<path d="M312.01 264.186V256.227" stroke="#263238" stroke-width="1.21" stroke-linecap="round" stroke-linejoin="round"/>
<path d="M328.257 264.186V256.227" stroke="#263238" stroke-width="1.21" stroke-linecap="round" stroke-linejoin="round"/>
<path d="M344.49 264.186V256.227" stroke="#263238" stroke-width="1.21" stroke-linecap="round" stroke-linejoin="round"/>
<path d="M360.723 264.186V256.227" stroke="#263238" stroke-width="1.21" stroke-linecap="round" stroke-linejoin="round"/>
<path d="M376.941 264.186V256.227" stroke="#263238" stroke-width="1.21" stroke-linecap="round" stroke-linejoin="round"/>
<path d="M392.572 264.186V256.227" stroke="#263238" stroke-width="1.21" stroke-linecap="round" stroke-linejoin="round"/>
<path d="M408.202 264.186V256.227" stroke="#263238" stroke-width="1.21" stroke-linecap="round" stroke-linejoin="round"/>
<path d="M423.804 264.186V256.227" stroke="#263238" stroke-width="1.21" stroke-linecap="round" stroke-linejoin="round"/>
<path d="M465.132 177.716V254.65C465.132 259.927 459.769 264.186 453.158 264.186H128.845C126.876 264.258 124.916 263.877 123.116 263.075C121.317 262.272 119.725 261.067 118.463 259.554C117.381 258.167 116.777 256.466 116.742 254.707V177.716C116.742 172.525 122.105 168.18 128.716 168.18H453.144C459.769 168.18 465.132 172.438 465.132 177.716Z" stroke="#00CD7E" stroke-width="1.21" stroke-linecap="round" stroke-linejoin="round"/>
<path d="M366.43 28.68L262.895 168.137L223.302 221.467L180.053 193.92L127.124 264.186H126.35C124.696 264.191 123.07 263.767 121.63 262.955C120.189 262.143 118.984 260.971 118.133 259.554L177.615 180.684L220.836 208.073L250.448 168.28L358.5 22.944L366.43 28.68Z" fill="#263238"/>
<path d="M340.159 30.4868L378.218 7.41379L367.692 47.322L360.981 28.8521L340.159 30.4868Z" fill="#263238"/>
<path d="M682.957 469.578H91.7185L23.5032 530.236" stroke="#263238" stroke-width="1.21" stroke-linecap="round" stroke-linejoin="round"/>
<path d="M92.0913 427.117V309.199" stroke="#263238" stroke-width="1.21" stroke-linecap="round" stroke-linejoin="round"/>
<path d="M92.0913 462.723V439.923" stroke="#263238" stroke-width="1.21" stroke-linecap="round" stroke-linejoin="round"/>
<path d="M529.146 235.621C529.144 249.835 524.321 263.629 515.465 274.748C506.609 285.868 494.244 293.655 480.39 296.838H480.204C478.555 297.196 476.92 297.526 475.213 297.77C472.24 298.193 469.24 298.409 466.237 298.415C449.831 298.327 434.111 291.826 422.435 280.301C410.759 268.777 404.052 253.143 403.749 236.74C403.446 220.337 409.569 204.466 420.811 192.518C432.053 180.57 447.523 173.492 463.913 172.797H466.781C475.258 172.86 483.632 174.656 491.389 178.074C502.597 182.955 512.138 190.999 518.845 201.22C525.551 211.441 529.131 223.396 529.146 235.621Z" fill="#FFB000" stroke="#2E353A" stroke-width="1.21" stroke-linecap="round" stroke-linejoin="round"/>
<path opacity="0.4" d="M491.504 178.088C418.943 174.317 418.599 254.865 418.599 254.865C418.599 254.865 407.529 228.58 425.611 199.484C435.649 183.208 453.288 176.024 466.896 172.84C475.371 172.886 483.747 174.673 491.504 178.088Z" fill="white"/>
<path d="M529.146 235.621C529.135 249.859 524.287 263.671 515.398 274.794C506.508 285.916 494.104 293.689 480.218 296.838C475.639 297.899 470.952 298.429 466.251 298.415C449.587 298.723 433.484 292.399 421.483 280.834C409.482 269.269 402.567 253.41 402.259 236.746C401.951 220.083 408.275 203.979 419.84 191.978C431.405 179.977 447.264 173.062 463.928 172.754H466.251C474.51 172.746 482.69 174.367 490.322 177.524C497.955 180.68 504.89 185.31 510.731 191.149C516.573 196.987 521.206 203.921 524.366 211.551C527.526 219.182 529.15 227.361 529.146 235.621V235.621Z" stroke="#263238" stroke-width="1.21" stroke-linecap="round" stroke-linejoin="round"/>
<path d="M529.146 235.621C529.135 249.859 524.287 263.671 515.398 274.794C506.508 285.916 494.104 293.689 480.218 296.838H477.895C462.479 296.786 447.62 291.071 436.144 280.779C424.667 270.487 417.373 256.336 415.648 241.017C413.924 225.698 417.89 210.279 426.791 197.693C435.693 185.107 448.91 176.232 463.928 172.754H466.251C474.51 172.746 482.69 174.367 490.322 177.524C497.955 180.68 504.89 185.31 510.731 191.149C516.573 196.987 521.206 203.921 524.366 211.551C527.526 219.182 529.15 227.361 529.146 235.621V235.621Z" stroke="#263238" stroke-width="1.21" stroke-linecap="round" stroke-linejoin="round"/>
<path d="M487.904 274.883L489.525 281.523L478.655 284.176L477.035 277.551C467.312 277.551 459.497 271.227 456.959 261.088L456.213 258.077L468.201 253.775L468.961 256.915C470.467 263.067 474.539 266.036 479.602 264.788C481.642 264.47 483.472 263.355 484.691 261.688C485.909 260.021 486.415 257.938 486.098 255.897C486.039 255.488 485.943 255.085 485.811 254.693C484.377 248.785 477.58 245.071 469.721 241.256C460.429 236.753 450.85 231.046 448.211 220.291C445.659 209.809 448.871 201.076 457.159 196.745L455.539 190.105L466.38 187.453L468.015 194.078C477.436 193.949 484.463 200.158 487.044 210.884L487.575 213.064L475.601 217.366L474.998 214.957C473.407 208.432 470.051 205.679 465.591 206.768C461.132 207.858 459.267 211.271 460.572 216.563C462.006 222.485 468.89 226.056 476.662 230.028C485.854 234.688 495.548 240.238 498.172 250.964C500.882 261.303 496.652 270.51 487.904 274.883Z" stroke="#263238" stroke-width="1.21" stroke-miterlimit="10"/>
<path d="M487.904 274.883L489.525 281.523L478.655 284.176L477.035 277.551C467.312 277.551 459.497 271.227 456.959 261.088L456.213 258.077L468.201 253.775L468.961 256.915C470.467 263.067 474.539 266.036 479.602 264.788C481.642 264.47 483.472 263.355 484.691 261.688C485.909 260.021 486.415 257.938 486.098 255.897C486.039 255.488 485.943 255.085 485.811 254.693C484.377 248.785 477.58 245.071 469.721 241.256C460.429 236.753 450.85 231.046 448.211 220.291C445.659 209.809 448.871 201.076 457.159 196.745L455.539 190.105L466.38 187.453L468.015 194.078C477.436 193.949 484.463 200.158 487.044 210.884L487.575 213.064L475.601 217.366L474.998 214.957C473.407 208.432 470.051 205.679 465.591 206.768C461.132 207.858 459.267 211.271 460.572 216.563C462.006 222.485 468.89 226.056 476.662 230.028C485.854 234.688 495.548 240.238 498.172 250.964C500.882 261.303 496.652 270.51 487.904 274.883Z" fill="#F3D44A" stroke="#2E353A" stroke-width="1.21" stroke-linecap="round" stroke-linejoin="round"/>
<path d="M434.129 289.639L447.408 289.037" stroke="#263238" stroke-width="1.21" stroke-linecap="round" stroke-linejoin="round"/>
<path d="M427.748 285.223L439.32 284.247" stroke="#263238" stroke-width="1.21" stroke-linecap="round" stroke-linejoin="round"/>
<path d="M422.557 280.576L434.129 279.587" stroke="#263238" stroke-width="1.21" stroke-linecap="round" stroke-linejoin="round"/>
<path d="M420.965 192.041H430.889" stroke="#263238" stroke-width="1.21" stroke-linecap="round" stroke-linejoin="round"/>
<path d="M425.87 187.481L435.75 187.037" stroke="#263238" stroke-width="1.21" stroke-linecap="round" stroke-linejoin="round"/>
<path d="M432.064 182.892L442.475 181.903" stroke="#263238" stroke-width="1.21" stroke-linecap="round" stroke-linejoin="round"/>
<path opacity="0.3" d="M480.39 296.838H480.204C471.69 298.75 462.871 298.867 454.309 297.182C445.748 295.497 437.631 292.046 430.477 287.05C423.323 282.053 417.289 275.621 412.759 268.163C408.229 260.705 405.302 252.385 404.166 243.734C403.03 235.082 403.709 226.289 406.159 217.914C408.61 209.539 412.779 201.767 418.401 195.093C424.022 188.419 430.972 182.99 438.808 179.151C446.645 175.312 455.195 173.148 463.914 172.797H465.649C450.334 177.63 424.636 190.005 417.767 215.702C408.074 252.241 429.928 293.755 480.39 296.838Z" fill="black"/>
<path d="M564.724 136.718C559.748 143.745 552.536 148.877 544.267 151.276C535.997 153.675 527.158 153.198 519.194 149.925L518.979 149.824C517.789 149.308 516.642 148.734 515.509 148.104C514.242 147.419 513.02 146.652 511.852 145.809C504.206 139.948 499.065 131.406 497.468 121.905C495.87 112.404 497.934 102.65 503.243 94.6105C508.553 86.571 516.713 80.8433 526.078 78.5822C535.444 76.3211 545.318 77.6948 553.711 82.4263L554.557 82.9712C554.944 83.1863 555.331 83.4731 555.733 83.7456C556.134 84.0181 556.894 84.5917 557.453 85.0362C565.017 91.1059 569.981 99.8323 571.332 109.436C572.683 119.039 570.32 128.797 564.724 136.718Z" fill="#FFB000" stroke="#2E353A" stroke-width="1.21" stroke-linecap="round" stroke-linejoin="round"/>
<path opacity="0.4" d="M507.378 137.234C507.378 137.234 501.169 118.936 509.429 105.485C519.811 88.6068 535.714 80.9063 557.353 85.0649C557.353 85.0649 545.623 77.1348 525.977 82.7561C506.331 88.3774 495.806 115.408 507.378 137.234Z" fill="white"/>
<path d="M564.724 136.732C559.742 143.752 552.528 148.877 544.26 151.27C535.991 153.664 527.155 153.184 519.194 149.91C516.569 148.839 514.076 147.468 511.766 145.823C504.038 139.914 498.866 131.269 497.314 121.666C495.761 112.062 497.945 102.228 503.417 94.1845C508.889 86.1408 517.233 80.498 526.736 78.4152C536.239 76.3325 546.179 77.9679 554.514 82.9856C554.901 83.215 555.302 83.4731 555.675 83.7456C563.891 89.5804 569.457 98.4352 571.153 108.368C572.85 118.301 570.537 128.501 564.724 136.732V136.732Z" stroke="#263238" stroke-width="1.21" stroke-linecap="round" stroke-linejoin="round"/>
<path d="M564.724 136.732C559.742 143.752 552.529 148.877 544.26 151.27C535.991 153.664 527.155 153.184 519.194 149.91L518.047 149.15C510.519 143.707 505.241 135.699 503.209 126.634C501.176 117.569 502.53 108.074 507.014 99.9378C511.498 91.8018 518.803 85.5868 527.553 82.4642C536.302 79.3416 545.891 79.5271 554.514 82.9856C554.901 83.215 555.302 83.4731 555.675 83.7456C563.891 89.5804 569.457 98.4352 571.153 108.368C572.85 118.301 570.537 128.501 564.724 136.732V136.732Z" stroke="#263238" stroke-width="1.21" stroke-linecap="round" stroke-linejoin="round"/>
<path d="M530.652 141.78L529.146 145.623L522.851 143.142L524.357 139.284C522.022 137.639 520.331 135.233 519.573 132.479C518.814 129.725 519.035 126.793 520.198 124.184L520.901 122.449L528.343 124.471L527.626 126.307C526.192 129.877 527.182 132.745 530.121 133.907C530.675 134.182 531.277 134.346 531.894 134.388C532.511 134.431 533.13 134.351 533.716 134.154C534.302 133.957 534.844 133.646 535.309 133.24C535.775 132.833 536.156 132.339 536.431 131.785C536.544 131.558 536.64 131.323 536.718 131.082C538.066 127.626 536.001 123.453 533.463 118.836C530.451 113.372 527.727 107.206 530.15 100.982C532.573 94.7587 537.191 91.7043 542.784 92.4643L544.304 88.6212L550.656 91.102L549.151 94.9164C553.868 98.1429 555.159 103.52 552.721 109.887L552.219 111.135L544.777 109.113L545.336 107.679C546.77 103.908 546.125 101.369 543.601 100.351C541.077 99.3332 538.912 100.351 537.707 103.449C536.345 106.905 538.51 111.02 540.948 115.695C543.816 121.216 546.684 127.339 544.275 133.548C543.357 136.318 541.481 138.67 538.983 140.179C536.485 141.688 533.531 142.256 530.652 141.78V141.78Z" stroke="#263238" stroke-width="1.21" stroke-miterlimit="10"/>
<path d="M530.652 141.78L529.146 145.623L522.851 143.142L524.357 139.284C522.022 137.639 520.331 135.233 519.573 132.479C518.814 129.725 519.035 126.793 520.198 124.184L520.901 122.449L528.343 124.471L527.626 126.307C526.192 129.877 527.182 132.745 530.121 133.907C530.675 134.182 531.277 134.346 531.894 134.388C532.511 134.431 533.13 134.351 533.716 134.154C534.302 133.957 534.844 133.646 535.309 133.24C535.775 132.833 536.156 132.339 536.431 131.785C536.544 131.558 536.64 131.323 536.718 131.082C538.066 127.626 536.001 123.453 533.463 118.836C530.451 113.372 527.727 107.206 530.15 100.982C532.573 94.7587 537.191 91.7043 542.784 92.4643L544.304 88.6212L550.656 91.102L549.151 94.9164C553.868 98.1429 555.159 103.52 552.721 109.887L552.219 111.135L544.777 109.113L545.336 107.679C546.77 103.908 546.125 101.369 543.601 100.351C541.077 99.3332 538.912 100.351 537.707 103.449C536.345 106.905 538.51 111.02 540.948 115.695C543.816 121.216 546.684 127.339 544.275 133.548C543.357 136.318 541.481 138.67 538.983 140.179C536.485 141.688 533.531 142.256 530.652 141.78Z" fill="#F3D44A" stroke="#2E353A" stroke-width="1.21" stroke-linecap="round" stroke-linejoin="round"/>
<path opacity="0.3" d="M553.61 82.4406C543.228 80.5908 530.078 79.5726 522.994 84.1758C509.959 92.536 501.843 103.076 501.972 120.155C502.101 137.234 518.047 149.208 518.047 149.208L518.979 149.882C516.449 148.816 514.044 147.474 511.809 145.881C504.12 140.038 498.94 131.49 497.318 121.97C495.696 112.451 497.754 102.67 503.075 94.6108C508.395 86.5516 516.581 80.8163 525.972 78.5672C535.364 76.3181 545.259 77.7232 553.653 82.498L553.61 82.4406Z" fill="black"/>
<path d="M439.378 121.345C439.261 128.935 436.573 136.261 431.755 142.126C426.936 147.992 420.272 152.05 412.849 153.639H412.634C411.515 153.839 410.382 153.997 409.25 154.098C400.6 154.383 392.175 151.31 385.741 145.523C379.307 139.735 375.362 131.682 374.734 123.05C374.106 114.419 376.842 105.879 382.37 99.2203C387.898 92.5617 395.789 88.3008 404.388 87.3306H405.263C405.665 87.3306 406.08 87.3306 406.511 87.3306C406.941 87.3306 407.773 87.3306 408.418 87.4166C416.926 88.0724 424.864 91.9465 430.616 98.25C436.368 104.554 439.502 112.812 439.378 121.345Z" fill="#FFB000" stroke="#2E353A" stroke-width="1.06" stroke-linecap="round" stroke-linejoin="round"/>
<path opacity="0.4" d="M397.921 150.283C397.921 150.283 384.312 140.073 383.595 126.192C382.735 108.74 390.478 95.2176 408.289 87.474C408.289 87.474 395.813 87.56 384.312 101.427C372.811 115.294 378.576 140.174 397.921 150.283Z" fill="white"/>
<path d="M439.392 121.359C439.264 128.948 436.569 136.269 431.746 142.128C426.923 147.988 420.257 152.04 412.834 153.624C410.39 154.154 407.893 154.4 405.392 154.356C396.841 153.882 388.794 150.157 382.899 143.945C377.004 137.732 373.706 129.502 373.681 120.938C373.655 112.374 376.904 104.124 382.761 97.876C388.619 91.6285 396.643 87.856 405.191 87.3306C405.597 87.309 406.004 87.309 406.41 87.3306C415.291 87.4853 423.749 91.1534 429.931 97.5316C436.113 103.91 439.515 112.478 439.392 121.359Z" stroke="#263238" stroke-width="1.06" stroke-linecap="round" stroke-linejoin="round"/>
<path d="M439.392 121.359C439.264 128.948 436.569 136.269 431.746 142.128C426.923 147.988 420.256 152.04 412.834 153.624H411.615C403.428 153.408 395.602 150.206 389.611 144.622C383.62 139.037 379.878 131.455 379.088 123.303C378.298 115.151 380.516 106.991 385.324 100.361C390.132 93.7299 397.197 89.0855 405.191 87.3019C405.597 87.2803 406.004 87.2803 406.41 87.3019C415.296 87.4566 423.758 91.1287 429.941 97.513C436.124 103.897 439.522 112.473 439.392 121.359V121.359Z" stroke="#263238" stroke-width="1.06" stroke-linecap="round" stroke-linejoin="round"/>
<path d="M417.122 141.966L417.939 145.508L412.117 146.842L411.3 143.285C408.78 143.25 406.351 142.342 404.426 140.715C402.501 139.089 401.2 136.845 400.746 134.366L400.387 132.76L406.812 130.523L407.213 132.215C407.973 135.499 410.081 137.119 412.806 136.517C413.877 136.363 414.847 135.798 415.508 134.941C416.169 134.084 416.471 133.003 416.348 131.928C416.315 131.71 416.267 131.494 416.204 131.283C415.459 128.085 411.902 126.077 407.729 123.984C402.811 121.503 397.763 118.391 396.429 112.641C395.096 106.89 396.931 102.388 401.377 100.151L400.574 96.5942L406.381 95.275L407.184 98.8026C412.218 98.8026 415.86 102.101 417.222 107.908L417.481 109.07L411.056 111.307L410.755 110.002C409.966 106.518 408.188 105.012 405.851 105.528C403.513 106.044 402.438 107.865 403.098 110.719C403.843 113.917 407.4 115.839 411.572 118.018C416.448 120.585 421.61 123.625 422.872 129.361C423.541 131.803 423.332 134.402 422.281 136.706C421.23 139.009 419.405 140.871 417.122 141.966V141.966Z" stroke="#263238" stroke-width="1.06" stroke-miterlimit="10"/>
<path d="M417.122 141.966L417.939 145.508L412.117 146.842L411.3 143.285C408.78 143.25 406.351 142.342 404.426 140.715C402.501 139.089 401.2 136.845 400.746 134.366L400.387 132.76L406.812 130.523L407.213 132.215C407.973 135.499 410.081 137.119 412.806 136.517C413.877 136.363 414.847 135.798 415.508 134.941C416.169 134.084 416.471 133.003 416.348 131.928C416.315 131.71 416.267 131.494 416.204 131.283C415.459 128.085 411.902 126.077 407.729 123.984C402.811 121.503 397.763 118.391 396.429 112.641C395.096 106.89 396.931 102.388 401.377 100.151L400.574 96.5942L406.381 95.275L407.184 98.8026C412.218 98.8026 415.86 102.101 417.222 107.908L417.481 109.07L411.056 111.307L410.755 110.002C409.966 106.518 408.188 105.012 405.851 105.528C403.513 106.044 402.438 107.865 403.098 110.719C403.843 113.917 407.4 115.839 411.572 118.018C416.448 120.585 421.61 123.625 422.872 129.361C423.541 131.803 423.332 134.402 422.281 136.706C421.23 139.009 419.405 140.871 417.122 141.966Z" fill="#F3D44A" stroke="#2E353A" stroke-width="1.06" stroke-linecap="round" stroke-linejoin="round"/>
<path opacity="0.3" d="M404.273 87.3879C395.784 91.2167 385.746 97.0244 382.878 103.908C377.558 116.484 376.898 128.185 385.502 140.561C394.106 152.936 411.673 153.682 411.673 153.682H412.691C410.334 154.177 407.929 154.408 405.521 154.37C397.034 153.92 389.033 150.268 383.134 144.151C377.234 138.033 373.874 129.906 373.732 121.408C373.59 112.91 376.677 104.675 382.369 98.3636C388.061 92.0524 395.935 88.1352 404.402 87.4023L404.273 87.3879Z" fill="black"/>
<path d="M560.928 687.163C544.828 706.539 525.63 723.116 504.113 736.22C497.405 740.228 490.472 743.848 483.349 747.061C434.177 769.159 378.151 770.593 325.752 757.887C215.592 731.186 157.128 633.904 149.714 525.981C147.721 496.813 143.261 465.308 155.078 437.546C166.894 409.784 190.784 392.562 217.815 380.588C237.447 371.84 258.641 365.975 277.9 361.186C312.754 352.579 349.516 356.371 381.879 371.912C404.522 382.667 420.597 401.338 439.698 417.054L445.792 422.03C465.036 437.517 485.265 451.739 506.35 464.606C538.386 484.151 571.181 502.578 591.645 535.388C624.297 587.672 596.75 644.601 560.928 687.163Z" fill="white"/>
<path d="M445.721 422.03C443.684 420.396 441.653 418.732 439.626 417.04C420.597 401.266 404.436 382.624 381.807 371.912C349.443 356.378 312.682 352.586 277.828 361.186C232.026 372.557 175.211 390.066 154.977 437.561C143.147 465.251 147.621 496.813 149.628 525.981C157.128 633.947 215.592 731.186 325.752 757.887C385.765 772.428 450.295 768.442 504.113 736.22C525.63 723.116 544.828 706.539 560.928 687.163C596.778 644.601 624.297 587.672 591.673 535.388C571.224 502.506 538.443 484.151 506.393 464.606C485.27 451.74 465.004 437.518 445.721 422.03V422.03Z" stroke="#263238" stroke-width="1.21" stroke-miterlimit="10"/>
<path d="M278.831 614.53C269.658 617.306 260.755 620.905 252.231 625.285" stroke="#263238" stroke-width="1.21" stroke-linecap="round" stroke-linejoin="round"/>
<path d="M334.987 603.79C321.585 604.949 308.281 607.062 295.179 610.114" stroke="#263238" stroke-width="1.21" stroke-linecap="round" stroke-linejoin="round"/>
<path d="M323.3 601.065C323.3 601.065 271.604 570.951 209.197 595.1" stroke="#263238" stroke-width="1.21" stroke-linecap="round" stroke-linejoin="round"/>
<path opacity="0.1" d="M560.928 687.163C544.828 706.539 525.63 723.116 504.113 736.22C497.405 740.228 490.472 743.848 483.349 747.061C477.721 745.338 472.192 743.308 466.786 740.981C434.493 727.142 407.39 703.697 380.918 680.652C364.958 666.8 348.725 652.617 329.596 643.497C303.744 631.266 274.331 628.84 246.825 636.671C261.05 620.619 280.388 609.98 301.561 606.557C287.895 594.11 268.88 588.89 250.396 588.561C231.911 588.231 221.716 590.497 203.676 594.54C209.727 583.441 225.745 573.375 238.393 573.676C226.371 573.519 214.368 572.672 202.443 571.138C186.124 568.499 178.81 549.298 176.401 532.964C169.661 487.966 176.487 440.056 201.052 401.811C205.91 394.185 211.531 387.074 217.83 380.588C237.447 371.84 258.656 365.975 277.914 361.186C312.763 352.578 349.522 356.371 381.879 371.912C404.536 382.667 420.597 401.338 439.712 417.054C441.734 418.718 443.756 420.381 445.807 422.03C465.051 437.517 485.279 451.739 506.365 464.606C538.4 484.151 571.181 502.578 591.659 535.388C624.297 587.672 596.75 644.601 560.928 687.163Z" fill="black"/>
<path d="M578.968 685.858C588.667 693.923 598.817 701.43 609.369 708.343C629.932 709.777 620.712 734.599 620.712 734.599L603.102 745.928C603.102 745.928 572.945 721.966 556.411 714.208C539.877 706.45 578.968 685.858 578.968 685.858Z" fill="white"/>
<path opacity="0.3" d="M432.757 424.052C432.757 424.052 429.889 396.147 425.444 388.303L357.085 374.35V369.058C357.085 369.058 358.662 359.852 343.433 354.087C328.204 348.323 296.47 355.808 288.282 362.003C280.094 368.198 283.091 378.867 283.091 378.867C283.091 378.867 255.587 392.762 243.225 398.054C233.109 402.733 223.249 407.946 213.685 413.67C213.685 413.67 208.092 477.827 209.197 492.726C210.301 507.626 208.293 521.65 209.569 529.896C210.846 538.141 211.864 542.802 220.511 549.871C229.158 556.941 237.031 567.165 259.716 557.041L256.547 554.532L405.884 504.227L432.757 424.052Z" fill="black"/>
<path d="M432.757 424.052C432.757 424.052 429.889 396.147 425.444 388.303L357.085 374.35V369.058C357.085 369.058 358.662 359.852 343.433 354.087C328.204 348.323 296.47 355.808 288.282 362.003C280.094 368.198 283.091 378.867 283.091 378.867C283.091 378.867 255.587 392.762 243.225 398.054C233.109 402.733 223.249 407.946 213.685 413.67C213.685 413.67 208.092 477.827 209.197 492.726C210.301 507.626 208.293 521.65 209.569 529.896C210.846 538.141 211.864 542.802 220.511 549.871C229.158 556.941 237.031 567.165 259.716 557.041L256.547 554.532L405.884 504.227L432.757 424.052Z" fill="#00CD7E"/>
<path opacity="0.05" d="M432.757 424.052C432.757 424.052 429.889 396.147 425.444 388.303L357.085 374.35V369.058C357.085 369.058 358.662 359.852 343.433 354.087C328.204 348.323 296.47 355.808 288.282 362.003C280.094 368.198 283.091 378.867 283.091 378.867C283.091 378.867 255.587 392.762 243.225 398.054C233.109 402.733 223.249 407.946 213.685 413.67C213.685 413.67 208.092 477.827 209.197 492.726C210.301 507.626 208.293 521.65 209.569 529.896C210.846 538.141 211.864 542.802 220.511 549.871C229.158 556.941 237.031 567.165 259.716 557.041L256.547 554.532L405.884 504.227L432.757 424.052Z" fill="black"/>
<path opacity="0.1" d="M426.347 391.687H397.753C395.065 391.692 392.466 392.65 390.418 394.391C388.37 396.131 387.006 398.542 386.568 401.194L372.472 485.987C372.472 485.987 353.084 487.593 339.346 497.602C325.609 507.611 291.809 436.141 238.407 436.112C238.407 436.112 253.78 471.231 257.178 499.208C257.178 499.208 223.809 495.58 218.274 508.644C212.739 521.708 220.783 546.186 234.894 536.707C249.004 527.229 262.312 511.411 271.733 521.406C281.155 531.401 323.357 536.793 323.357 536.793L388.188 504.112L413.341 492.296L426.347 391.687Z" fill="black"/>
<path opacity="0.4" d="M335.575 349.656C335.575 349.656 351.808 354.159 354.432 359.608C357.056 365.057 356.784 378.853 356.784 378.853C352.847 388.07 346.882 396.28 339.332 402.872L327.215 378.853L328.305 406.099C328.305 406.099 305.361 402.284 295.567 394.942L285.83 387.586C285.83 387.586 281.614 373.747 282.23 369.058C282.847 364.369 300.356 354.847 300.356 354.847L335.575 349.656Z" fill="white"/>
<path d="M605.942 769.632C605.483 768.657 612.595 756.095 607.031 743.304C601.467 730.512 592.577 735.445 592.577 735.445C592.577 735.445 567.295 719.356 556.727 714.265C549.074 710.419 541.704 706.034 534.672 701.144L523.429 716.273L533.811 748.394L605.942 769.632Z" fill="#00CD7E"/>
<path d="M591.659 734.671L624.125 754.503C624.125 754.503 646.954 739.862 657.838 729.752C668.722 719.643 693.172 698.118 693.172 698.118L708.745 677.168C708.745 677.168 697.947 663.803 679.95 674.543C656.691 688.396 628.326 708.472 609.469 708.3C609.469 708.3 613.198 731.531 591.845 734.671" fill="#00CD7E"/>
<path d="M330.083 265.782C330.083 265.782 344.81 288.066 347.492 295.279C350.173 302.492 352.339 313.175 351.794 318.309C351.249 323.443 345.871 350.976 343.19 351.779L340.58 354.733L342.315 366.391C342.315 366.391 330.843 386.309 296.9 371.711C296.9 371.711 295.595 348.452 291.465 341.153C287.335 333.854 281.198 342.587 275.017 321.435C268.837 300.284 288.511 278.186 288.511 278.186L330.083 265.782Z" fill="white"/>
<path opacity="0.5" d="M694.606 670.657C694.606 670.657 677.9 673.525 672.493 683.448C667.087 693.372 656.719 711.684 653.12 720.56C649.521 729.437 620.253 750.875 620.253 750.875L624.139 754.503C624.139 754.503 648.015 739.733 662.441 725.708C676.867 711.684 708.63 676.379 708.63 676.379C708.63 676.379 706.35 674.056 694.606 670.657Z" fill="white"/>
<path opacity="0.5" d="M527.516 710.723L523.429 716.273L536.12 742.615L605.985 767.725L609.211 757.486C609.211 757.486 610.287 747.104 585.765 739.217C561.244 731.33 546.301 726.124 539.332 720.704C532.363 715.283 527.516 710.723 527.516 710.723Z" fill="white"/>
<path d="M296.857 515.126C296.857 515.126 275.462 511.899 265.481 529.394C255.5 546.889 256.518 554.474 256.518 554.474C256.518 554.474 270.658 567.309 290.088 566.577C309.519 565.846 337.869 543.562 347.047 536.392C356.225 529.222 379.527 508.4 395.401 512.688L397.237 497.674C397.237 497.674 395.688 490.934 382.123 492.755C368.557 494.576 363.222 502.306 358.849 502.306C354.475 502.306 350.331 498.104 341.54 513.118C341.454 513.089 310.595 518.567 296.857 515.126Z" fill="white"/>
<path d="M324.705 297.817C325.162 300.621 325.809 303.39 326.641 306.106C326.956 307.456 327.557 308.723 328.405 309.82C330.025 311.555 332.707 311.999 335.059 312.358C335.459 312.385 335.838 312.547 336.134 312.817C336.333 313.123 336.424 313.486 336.392 313.849C336.38 316.573 335.562 319.233 334.04 321.493" stroke="#263238" stroke-width="1.21" stroke-linecap="round" stroke-linejoin="round"/>
<path opacity="0.1" d="M541.856 692.769L527.516 710.651C527.516 710.651 543.29 725.207 559.566 730.598C575.842 735.99 604.393 746.172 609.168 754.016L607.332 744.68C607.332 744.68 562.706 717.305 552.467 710.766C549.438 708.78 546.906 706.124 545.066 703.003C543.226 699.883 542.128 696.382 541.856 692.769Z" fill="black"/>
<path opacity="0.1" d="M591.659 734.671L620.224 750.875C620.224 750.875 634.335 741.224 641.261 734.112C648.187 726.999 656.705 719.112 662.025 703.18C669.267 681.154 690.031 670.657 690.031 670.657C690.031 670.657 661.151 684.266 646.122 694.892C631.094 705.518 616.424 710.006 607.906 709.232C607.82 709.332 614.66 730.971 591.659 734.671Z" fill="black"/>
<path d="M314.639 325.364C314.639 325.364 325.867 334.169 337.583 330.871C337.525 330.871 326.527 352.668 314.639 325.364Z" fill="white" stroke="#263238" stroke-width="1.21" stroke-linecap="round" stroke-linejoin="round"/>
<path d="M314.223 306.335C314.538 308.759 313.807 310.852 312.588 311.024C311.369 311.196 310.121 309.289 309.792 306.923C309.462 304.557 310.179 302.406 311.412 302.234C312.645 302.062 313.95 303.912 314.223 306.335Z" fill="#263238"/>
<path d="M338.672 301.918C338.974 304.356 338.257 306.45 337.038 306.608C335.819 306.765 334.543 304.887 334.17 302.535C333.797 300.183 334.557 297.989 335.79 297.832C337.023 297.674 338.343 299.495 338.672 301.918Z" fill="#263238"/>
<path d="M312.487 296.053C312.487 296.053 305.948 292.683 301.288 299.911" stroke="#263238" stroke-width="1.21" stroke-linecap="round" stroke-linejoin="round"/>
<path d="M329.251 291.551C329.251 291.551 336.177 285.628 340.178 291.551" stroke="#263238" stroke-width="1.21" stroke-linecap="round" stroke-linejoin="round"/>
<path d="M290.275 318.323C290.275 318.323 286.059 312.114 281.671 312.301C277.283 312.487 275.462 318.725 277.053 324.748C278.645 330.771 285.27 339.174 290.289 338.385C293.103 338.009 295.668 336.573 297.459 334.37" stroke="#263238" stroke-width="1.21" stroke-linecap="round" stroke-linejoin="round"/>
<path d="M330.585 270.786C335.303 274.715 340.307 278.989 342.702 284.768C344.81 289.686 345.283 295.15 347.219 300.126C349.27 305.432 351.521 310.996 351.693 316.789C351.613 322.177 350.91 327.537 349.6 332.764C348.879 337.275 347.809 341.725 346.402 346.071C344.064 352.28 339.762 356.109 333.983 359.049C329.767 361.186 322.77 364.24 318.209 361.358C315.571 359.637 311.584 354.69 308.286 350.129" stroke="#263238" stroke-width="1.21" stroke-linecap="round" stroke-linejoin="round"/>
<path d="M290.275 338.385C290.275 338.385 297.703 356.626 295.911 369.445" stroke="#263238" stroke-width="1.21" stroke-linecap="round" stroke-linejoin="round"/>
<path d="M288.368 315.269C289.357 314.535 290.141 313.558 290.644 312.433C291.146 311.307 291.35 310.072 291.236 308.845C290.963 305.977 289.027 303.438 289.4 300.642C289.697 299.301 290.179 298.007 290.834 296.799C291.843 294.471 292.287 291.938 292.13 289.406C291.973 286.874 291.219 284.415 289.931 282.23C289.931 282.23 313.577 283.334 324.648 276.293C335.718 269.252 344.165 251.241 337.468 242.637C330.771 234.033 317.722 245.777 308.056 247.068C298.391 248.359 263.975 253.851 258.497 267.144C253.02 280.437 261.365 285.169 261.623 297.817C261.882 310.465 261.882 334.427 280.796 332.233C280.796 332.233 273.726 323.07 278.631 313.591C282.029 309.633 288.368 315.269 288.368 315.269Z" fill="#263238"/>
<path d="M334.715 257.594C337.927 260.092 340.591 263.224 342.54 266.797C344.489 270.369 345.682 274.304 346.043 278.358C347.09 287.837 363.911 306.263 351.779 316.775C351.779 316.775 348.911 305.604 347.305 300.112C345.699 294.619 343.505 284.538 340.723 281.068C337.941 277.598 323.157 265.495 323.157 265.495L334.715 257.594Z" fill="#263238"/>
<path d="M292.455 369.044C292.455 369.044 304.113 376.73 325.781 377.031L328.319 406.084C328.319 406.084 303.941 404.234 285.844 387.571C285.844 387.571 280.94 374.665 282.245 369.044C283.549 363.423 295.151 357.945 295.151 357.945" stroke="#263238" stroke-width="1.21" stroke-linecap="round" stroke-linejoin="round"/>
<path d="M341.455 356.052L342.143 366.434C337.574 371.185 331.977 374.825 325.781 377.074L339.347 402.886C339.347 402.886 355.522 390.296 357.128 377.074C357.128 377.074 357.272 363.523 354.447 359.651C351.622 355.779 341.354 353.915 341.354 353.915" stroke="#263238" stroke-width="1.21" stroke-linecap="round" stroke-linejoin="round"/>
<path opacity="0.8" d="M275.806 275.762C277.527 271.46 282.273 268.836 286.891 268.148C291.508 267.459 296.255 267.933 300.93 267.818C307.398 267.761 313.732 265.968 319.27 262.627C324.824 259.241 328.806 253.789 330.341 247.469" stroke="white" stroke-width="1.21" stroke-linecap="round" stroke-linejoin="round"/>
<path opacity="0.8" d="M264.635 274.916C267.503 266.04 277.053 260.576 286.374 259.773C290.992 259.372 295.667 259.902 300.212 259.372C304.758 258.841 309.619 256.934 312.014 252.976" stroke="white" stroke-width="1.21" stroke-linecap="round" stroke-linejoin="round"/>
<path d="M259.731 556.984C237.231 568.642 229.244 556.625 216.711 546.702C204.177 536.779 212.409 519.012 209.784 490.547C207.16 462.082 213.685 413.67 213.685 413.67C213.685 413.67 219.292 412.394 234.851 402.872C250.41 393.35 283.133 378.853 283.133 378.853" stroke="#263238" stroke-width="1.21" stroke-linecap="round" stroke-linejoin="round"/>
<path d="M282.015 513.892C282.015 513.892 278.444 502.592 268.378 502.291C258.311 501.99 242.422 506.593 231.094 527.945" stroke="#263238" stroke-width="1.21" stroke-linecap="round" stroke-linejoin="round"/>
<path d="M266.084 501.617C265.456 501.583 264.839 501.438 264.262 501.187C255.972 498.21 246.977 497.8 238.45 500.011" stroke="#263238" stroke-width="1.21" stroke-linecap="round" stroke-linejoin="round"/>
<path d="M232.614 429.114C250.94 449.362 259.86 476.149 268.32 502.105" stroke="#263238" stroke-width="1.21" stroke-linecap="round" stroke-linejoin="round"/>
<path d="M357.085 374.35C357.085 374.35 390.311 382.265 406.544 384.158C422.776 386.051 425.401 388.317 425.401 388.317L428.426 399.631" stroke="#263238" stroke-width="1.21" stroke-linecap="round" stroke-linejoin="round"/>
<path d="M511.943 394.082L398.8 398.427L389.551 514.796H408.938L507.182 492.798L519.543 396.864L511.943 394.082Z" fill="white"/>
<path d="M395.445 518.237L519.199 399.617L507.182 492.798L395.445 518.237Z" fill="#00CD7E"/>
<path opacity="0.7" d="M395.445 518.237L519.199 399.617L507.182 492.798L395.445 518.237Z" fill="white"/>
<path d="M395.445 515.126L405.339 402.872L519.543 396.864L507.182 492.798L395.445 515.126Z" stroke="#263238" stroke-width="1.21" stroke-linecap="round" stroke-linejoin="round"/>
<path d="M471.404 451.255C470.644 458.081 466.987 463.272 463.258 462.856C459.53 462.44 457.121 456.547 457.895 449.706C458.67 442.866 462.312 437.69 466.055 438.105C469.797 438.521 472.178 444.415 471.404 451.255Z" fill="#263238"/>
<path d="M507.182 492.798C507.182 492.798 559.48 491.364 575.827 502.105C592.175 512.845 601.783 567.051 599.517 595.802C597.251 624.554 577.52 690.561 577.52 690.561L539.734 647.785C539.734 647.785 521.092 580.1 531.273 553.585C531.273 553.585 481.083 556.453 461.337 550.216C461.337 550.216 443.627 521.234 413.283 511.641L507.182 492.798Z" fill="#263238"/>
<path d="M585.507 691.68C572.074 679.135 560.018 665.195 549.542 650.094C531.259 621.844 505.977 594.727 479.964 573.561C459.014 556.568 454.267 528.892 428.426 514.996C385.593 492.052 348.567 537.668 334.715 546.903C320.862 556.138 296.857 566.663 296.857 566.663C296.857 566.663 305.604 599.545 331.273 603.431C356.942 607.317 382.983 589.593 395.287 598.154C407.59 606.715 416.696 644.96 457.322 667.373C490.533 685.686 535.776 703.539 559.136 715.584C564.327 718.28 568.198 721.12 571.138 722.754C579.355 727.114 587.959 732.291 596.061 737.424L624.067 754.474C624.067 754.474 652.188 737.854 662.986 722.525C664.42 720.46 667.417 714.982 670.227 709.619C676.322 698.047 684.066 687.664 694.778 681.943C702.177 677.942 708.773 676.752 708.616 676.336C707.913 675.017 694.476 668.148 685.356 671.905C666.055 679.878 627.451 710.522 609.225 708.242C600.754 703.578 592.803 698.026 585.507 691.68V691.68Z" stroke="#263238" stroke-width="1.21" stroke-miterlimit="10"/>
<path d="M585.507 691.68C568.672 698.434 561.889 708.988 559.279 715.642C535.933 703.525 490.676 685.743 457.465 667.431C416.84 644.946 407.806 606.773 395.43 598.226C383.055 589.679 357.028 607.461 331.402 603.503C305.776 599.545 296.857 566.649 296.857 566.649C296.857 566.649 320.833 556.267 334.686 547.032C348.538 537.797 380.445 492.139 428.369 515.126C454.826 527.802 458.956 556.712 479.907 573.69C505.862 594.784 531.201 621.973 549.485 650.223C559.955 665.306 572.033 679.207 585.507 691.68Z" fill="#263238"/>
<path d="M458.985 544.996C458.985 544.996 446.079 518.668 425.243 513.562" stroke="white" stroke-width="1.21" stroke-linecap="round" stroke-linejoin="round"/>
<path d="M391.042 492.554C376.702 489.443 361.057 505.245 354.447 502.277C349.528 500.083 341.454 513.089 341.454 513.089C328.163 515.012 314.721 515.693 301.302 515.126C282.044 513.892 272.924 517.649 266.112 527.946L256.59 553.155C256.59 553.155 281.7 575.655 308.501 562.548C335.303 549.441 370.909 509.935 395.445 510.064" stroke="#263238" stroke-width="1.21" stroke-linecap="round" stroke-linejoin="round"/>
<path d="M590.569 733.997C590.569 733.997 614.029 735.919 608.537 707.884" stroke="#263238" stroke-width="1.21" stroke-miterlimit="10"/>
<path d="M701.145 690.561C699.41 694.017 677.9 712.329 659.372 728.333C659.372 728.089 664.563 718.295 666.714 714.15C671.633 704.944 684.381 679.734 708.616 676.379C712.058 678.444 701.145 690.561 701.145 690.561Z" fill="#263238"/>
<path d="M691.924 670.858C667.403 675.733 661.81 707.195 653.12 720.56C644.43 733.925 620.253 752.108 620.253 752.108" stroke="#263238" stroke-width="1.21" stroke-miterlimit="10"/>
<path d="M607.031 744.092C611.032 751.406 609.139 759.866 607.031 765.186C605.996 767.828 604.709 770.363 603.188 772.758C568.471 767.022 533.768 748.38 533.768 748.38L524.863 720.704L523.429 716.273L536.909 698.118" stroke="#263238" stroke-width="1.21" stroke-miterlimit="10"/>
<path d="M607.031 765.186C605.996 767.828 604.709 770.363 603.188 772.758C568.471 767.022 533.768 748.38 533.768 748.38L524.863 720.704C529.337 726.555 537.654 735.115 550.101 738.629C566.965 743.418 598.169 749.025 607.031 765.186Z" fill="#263238"/>
<path d="M389.551 510.737L398.8 398.427L511.943 394.082L519.543 396.864" stroke="#263238" stroke-width="1.21" stroke-linecap="round" stroke-linejoin="round"/>
<path d="M608.379 720.56C608.379 720.56 623.852 723.328 635.74 713.648C647.628 703.969 666.829 682.029 666.829 682.029" stroke="#263238" stroke-width="1.21" stroke-miterlimit="10"/>
<path d="M624.124 706.622C624.124 706.622 620.382 712.243 624.124 723.529" stroke="#263238" stroke-width="1.21" stroke-linecap="round" stroke-linejoin="round"/>
<path d="M635.095 701.302C633.395 706.914 633.908 712.963 636.529 718.209" stroke="#263238" stroke-width="1.21" stroke-linecap="round" stroke-linejoin="round"/>
<path d="M648.187 693.659C648.187 693.659 645.061 703.051 648.187 711.34" stroke="#263238" stroke-width="1.21" stroke-linecap="round" stroke-linejoin="round"/>
<path d="M539.92 695.781L527.516 710.723C527.516 710.723 540.006 724.375 557.63 730.053C575.254 735.732 606.759 745.354 609.369 755.622" stroke="#263238" stroke-width="1.21" stroke-miterlimit="10"/>
</svg>
